<svg version="1.0" xmlns="http://www.w3.org/2000/svg" width="933.333" height="933.333" viewBox="0 0 700 700"><path d="M330.9 1.4c-.2.2-4.7.7-9.9 1-5.2.4-10.2.9-11 1.1-.8.2-4 .6-7 .9-11.4 1.2-33.3 5.7-46.5 9.6-3.8 1.2-8.6 2.5-10.5 3-1.9.5-6 1.9-9 3-3 1.2-7.5 2.8-10 3.6-2.5.9-5.8 2.1-7.5 2.9-1.6.7-7.2 3.2-12.3 5.4C175.1 46 142.1 67.6 115.6 92c-27.5 25.2-47.6 50.1-66.9 82.5-5.6 9.6-19.7 37.4-19.7 39 0 .4-.8 2.5-1.8 4.8-2.9 6.5-6.6 16.3-7.7 20.7-.1.3-.4 1.2-.8 2-1.9 5-7 23.1-8.3 29.3-.2 1-.5 2.6-.8 3.5-.3.9-.8 3.5-1.2 5.7-.3 2.2-.8 4.3-.9 4.6-.2.3-.7 2.8-1.1 5.5-.3 2.7-.7 5.1-.9 5.4-.2.3-.6 3.4-1 7s-.8 6.7-1 7c-1.8 3-2.7 57.8-1.1 72 .4 4.1.9 8.8 1.1 10.5.2 2.9 1.4 11 2.1 15 .2 1.1.7 4 1 6.5.3 2.5.8 4.8 1 5.1.2.3.6 2.1.9 4 1.1 6.5 6.4 26.5 9.9 36.9 7.2 22.1 18.7 47.9 29.7 66.5 4.6 8 17.6 27.9 20 30.9.5.6 3.9 4.9 7.5 9.6 36.8 47 85.1 83.9 139.9 106.8 11.1 4.7 36.4 13.5 41.7 14.6 2.4.5 12.9 3.1 18.8 4.6 3.1.8 8.2 1.7 18.5 3.4 8 1.4 18.6 2.7 26.4 3.4 17 1.4 59.3.7 71.2-1.3 1.3-.2 4.6-.6 7.3-1 60.9-7.7 125-36.1 174.6-77.4 41.6-34.6 77.3-82.4 97.7-130.5 7.9-18.6 17-47 19.9-61.9.2-1 .5-2.6.8-3.5.3-.9.7-3.3 1-5.2.3-1.9.8-4.5 1-5.6.2-1.2.7-3.9 1-6 .4-2.2.9-5.3 1.1-6.9.7-4 1.3-9.4 2.2-19 1.4-16 .7-63-1.2-72-.2-1.1-.6-3.8-.9-6-.5-4.3-4.1-24.7-4.9-28-.3-1.1-1-4.3-1.7-7-.6-2.8-1.5-6.4-2-8-.5-1.7-2.2-7.1-3.6-12-2.3-7.7-8.5-24.8-12.7-34.9-1.7-4.2-14.3-29.3-17.2-34.6-7.4-13-26.3-40.9-30.5-45-.3-.3-2.5-3-5-6-9.2-11.3-26.9-29.5-38.7-39.8-8-7.1-27.6-22.2-28.6-22.2-.4 0-1.8-.9-3-2.1-3.1-2.8-21.7-14.2-23.3-14.2-.7 0-1.1-.4-.9-.8.9-1.4-44.3-22.9-48.1-22.9-.7 0-1.4-.4-1.6-.8-.9-2.2-47.1-15.3-62.3-17.6-1.6-.3-5.9-1-9.5-1.6-3.6-.5-9.6-1.3-13.5-1.6-3.8-.3-7.7-.8-8.5-1.1-1.7-.6-49.5-1.5-50.1-.9z"/></svg>