<?xml version="1.0" standalone="no"?>
<!DOCTYPE svg PUBLIC "-//W3C//DTD SVG 20010904//EN"
 "http://www.w3.org/TR/2001/REC-SVG-20010904/DTD/svg10.dtd">
<svg version="1.0" xmlns="http://www.w3.org/2000/svg"
 width="700.000000pt" height="700.000000pt" viewBox="0 0 700.000000 700.000000"
 preserveAspectRatio="xMidYMid meet">
<metadata>
Created by potrace 1.14, written by Peter Selinger 2001-2017
</metadata>
<g transform="translate(0.000000,700.000000) scale(0.100000,-0.100000)"
fill="#000000" stroke="none">
<path d="M3309 6986 c-2 -2 -47 -7 -99 -10 -52 -4 -102 -9 -110 -11 -8 -2 -40
-6 -70 -9 -114 -12 -333 -57 -465 -96 -38 -12 -86 -25 -105 -30 -19 -5 -60
-19 -90 -30 -30 -12 -75 -28 -100 -36 -25 -9 -58 -21 -75 -29 -16 -7 -72 -32
-123 -54 -321 -141 -651 -357 -916 -601 -275 -252 -476 -501 -669 -825 -56
-96 -197 -374 -197 -390 0 -4 -8 -25 -18 -48 -29 -65 -66 -163 -77 -207 -1 -3
-4 -12 -8 -20 -19 -50 -70 -231 -83 -293 -2 -10 -5 -26 -8 -35 -3 -9 -8 -35
-12 -57 -3 -22 -8 -43 -9 -46 -2 -3 -7 -28 -11 -55 -3 -27 -7 -51 -9 -54 -2
-3 -6 -34 -10 -70 -4 -36 -8 -67 -10 -70 -18 -30 -27 -578 -11 -720 4 -41 9
-88 11 -105 2 -29 14 -110 21 -150 2 -11 7 -40 10 -65 3 -25 8 -48 10 -51 2
-3 6 -21 9 -40 11 -65 64 -265 99 -369 72 -221 187 -479 297 -665 46 -80 176
-279 200 -309 5 -6 39 -49 75 -96 368 -470 851 -839 1399 -1068 111 -47 364
-135 417 -146 24 -5 129 -31 188 -46 31 -8 82 -17 185 -34 80 -14 186 -27 264
-34 170 -14 593 -7 712 13 13 2 46 6 73 10 609 77 1250 361 1746 774 416 346
773 824 977 1305 79 186 170 470 199 619 2 10 5 26 8 35 3 9 7 33 10 52 3 19
8 45 10 56 2 12 7 39 10 60 4 22 9 53 11 69 7 40 13 94 22 190 14 160 7 630
-12 720 -2 11 -6 38 -9 60 -5 43 -41 247 -49 280 -3 11 -10 43 -17 70 -6 28
-15 64 -20 80 -5 17 -22 71 -36 120 -23 77 -85 248 -127 349 -17 42 -143 293
-172 346 -74 130 -263 409 -305 450 -3 3 -25 30 -50 60 -92 113 -269 295 -387
398 -80 71 -276 222 -286 222 -4 0 -18 9 -30 21 -31 28 -217 142 -233 142 -7
0 -11 4 -9 8 9 14 -443 229 -481 229 -7 0 -14 4 -16 8 -9 22 -471 153 -623
176 -16 3 -59 10 -95 16 -36 5 -96 13 -135 16 -38 3 -77 8 -85 11 -17 6 -495
15 -501 9z"/>
</g>
</svg>
